<?xml version="1.0" standalone="no"?>
<!DOCTYPE svg PUBLIC "-//W3C//DTD SVG 20010904//EN"
 "http://www.w3.org/TR/2001/REC-SVG-20010904/DTD/svg10.dtd">
<svg version="1.0" xmlns="http://www.w3.org/2000/svg"
 width="1890.000000pt" height="1063.000000pt" viewBox="0 0 1890.000000 1063.000000"
 preserveAspectRatio="xMidYMid meet">

<g transform="translate(0.000000,1063.000000) scale(0.100000,-0.100000)"
fill="#000000" stroke="none">
<path d="M3175 9416 c10 -14 19 -26 22 -26 7 0 -17 39 -28 46 -6 3 -3 -5 6
-20z"/>
<path d="M3244 9309 c-4 -7 -3 -9 4 -5 5 3 13 0 15 -6 4 -9 6 -10 6 -1 1 17
-16 25 -25 12z"/>
<path d="M3314 9228 c-4 -7 -4 -10 1 -6 4 4 15 2 24 -5 14 -11 14 -10 2 6 -16
20 -18 21 -27 5z"/>
<path d="M3400 9146 c0 -2 8 -10 18 -17 15 -13 16 -12 3 4 -13 16 -21 21 -21
13z"/>
<path d="M5608 8713 c7 -3 16 -2 19 1 4 3 -2 6 -13 5 -11 0 -14 -3 -6 -6z"/>
<path d="M5658 8453 c-1 -142 -1 -267 -1 -278 0 -11 -5 -23 -11 -27 -7 -5 -5
-8 5 -8 20 0 41 24 31 36 -4 4 1 2 11 -5 10 -8 17 -27 17 -47 0 -35 -8 -42
-27 -23 -13 13 -55 8 -60 -7 -2 -6 3 -14 11 -17 9 -4 15 -1 13 5 -1 7 7 13 18
15 11 2 16 1 10 -4 -5 -4 -11 -15 -13 -23 -2 -8 0 -12 4 -8 4 4 14 2 22 -5 13
-10 14 -9 8 2 -6 9 -5 12 5 9 8 -3 13 -10 12 -15 -3 -15 95 -66 109 -57 6 4 8
3 5 -3 -8 -13 67 -48 82 -38 7 4 10 1 9 -7 -2 -8 5 -12 19 -10 12 2 24 -2 28
-7 3 -7 -1 -9 -12 -6 -10 3 0 -4 22 -15 22 -11 46 -20 53 -20 6 0 12 -5 12
-10 0 -7 6 -7 19 -1 21 12 32 5 24 -15 -5 -12 2 -16 23 -13 4 0 10 -3 13 -8 6
-8 26 -20 96 -57 22 -12 52 -30 67 -40 16 -10 35 -16 43 -12 9 3 14 2 11 -3
-5 -8 140 -100 158 -99 5 0 12 -5 15 -10 3 -6 38 -32 76 -58 97 -66 212 -151
264 -196 24 -21 48 -35 52 -32 5 3 8 2 7 -3 -2 -4 2 -10 7 -13 6 -2 21 -17 34
-33 13 -16 30 -26 38 -23 8 3 12 2 9 -3 -3 -4 3 -16 14 -26 11 -10 20 -16 20
-13 0 4 16 -10 35 -29 20 -20 39 -32 46 -27 7 4 9 3 6 -3 -7 -11 110 -110 124
-105 5 1 8 -2 7 -7 -2 -5 40 -48 92 -96 306 -282 554 -612 730 -970 185 -376
278 -746 311 -1230 6 -93 13 -172 15 -174 2 -2 4 32 4 75 l0 80 65 69 c36 39
62 61 56 50 -5 -11 -21 -31 -35 -44 -14 -14 -26 -29 -26 -35 0 -5 6 -2 13 8
16 22 45 12 53 -19 3 -13 4 -40 1 -61 -7 -51 0 -66 24 -54 14 8 20 6 29 -10 6
-11 18 -20 28 -21 14 0 14 -2 -2 -8 -11 -4 -15 -10 -10 -14 23 -14 44 16 48
70 0 12 3 21 6 21 19 -1 23 4 10 13 -12 8 -12 10 -1 7 8 -2 15 -12 17 -21 1
-9 -2 -15 -7 -11 -5 3 -9 1 -9 -5 0 -18 18 -21 26 -3 4 9 6 21 5 25 -1 5 3 5
9 2 14 -8 52 24 44 37 -3 4 -2 7 3 6 5 -2 63 40 128 93 191 154 373 259 554
319 125 42 206 53 339 48 134 -6 266 -42 362 -101 30 -18 66 -40 80 -48 14 -8
32 -19 40 -26 8 -6 19 -12 24 -13 44 -8 30 192 -21 297 -29 58 -111 145 -153
163 -17 7 -31 24 -39 48 -53 148 -194 309 -376 428 -121 78 -375 199 -460 218
-27 7 -24 1 39 -62 l68 -70 -78 -1 c-95 -1 -164 -22 -204 -62 -29 -30 -29 -30
-34 -7 -39 189 -85 319 -182 516 -47 94 -89 170 -93 168 -4 -3 -8 1 -8 8 0 24
-136 217 -149 212 -8 -3 -11 1 -7 10 7 18 -15 46 -30 37 -5 -3 -7 -1 -3 5 3 6
-16 37 -42 69 -46 55 -94 101 -79 76 4 -6 2 -15 -5 -19 -7 -4 -10 -4 -6 1 4 4
2 15 -5 23 -9 13 -9 14 1 8 6 -4 12 -3 12 2 0 13 -35 43 -42 36 -4 -3 -9 4
-13 15 -3 12 -11 18 -17 15 -6 -4 -5 -10 3 -15 10 -6 10 -9 2 -9 -14 0 -35 35
-26 43 10 10 -19 38 -33 33 -7 -3 -11 0 -8 7 2 7 -24 40 -59 75 l-63 62 -1
-34 c0 -20 2 -35 6 -34 20 2 31 -4 31 -19 0 -9 3 -13 7 -10 3 4 12 2 20 -4 10
-9 13 -8 13 0 0 7 5 9 11 5 8 -4 8 -9 0 -17 -6 -6 -11 -16 -11 -22 0 -5 5 -2
11 8 11 19 31 14 23 -6 -2 -7 -17 -13 -32 -13 -32 -2 -82 -43 -82 -68 0 -9 -7
-16 -15 -16 -10 0 -14 -11 -12 -45 2 -56 21 -53 25 3 4 57 32 59 32 2 0 -28
-4 -40 -14 -40 -18 0 -26 -22 -19 -52 l6 -23 -22 25 c-13 14 -27 32 -31 40 -5
8 -11 12 -15 9 -3 -4 8 -28 26 -53 17 -26 29 -50 26 -52 -3 -3 -11 5 -18 18
-7 12 -24 39 -39 58 -14 19 -43 58 -63 85 -20 28 -40 55 -44 60 -5 6 -39 49
-76 97 -37 47 -73 92 -79 100 -7 7 -39 45 -72 83 -124 149 -351 387 -494 518
-82 76 -161 123 -174 105 -8 -10 -9 -10 -5 2 4 17 -69 64 -86 53 -6 -4 -7 -1
-2 7 6 10 4 12 -9 7 -9 -4 -15 -3 -12 1 7 12 -63 44 -76 36 -7 -4 -8 -2 -4 4
7 12 -127 86 -138 75 -3 -4 -6 -1 -6 7 0 10 -3 10 -15 0 -11 -9 -19 -8 -37 5
-15 12 -17 15 -5 12 22 -8 22 2 0 18 -19 14 -46 9 -36 -8 3 -6 1 -7 -6 -3 -9
6 -9 11 1 24 11 13 11 14 -2 10 -8 -3 -23 1 -32 10 -16 14 -18 13 -18 -2 0 -9
-4 -15 -10 -11 -5 3 -7 12 -4 20 6 15 -59 50 -85 46 -8 -1 -10 2 -6 10 5 7 3
10 -6 7 -8 -3 -25 3 -38 14 -18 14 -27 15 -38 7 -11 -9 -12 -9 -8 3 9 22 -49
44 -79 30 -26 -12 -46 0 -46 28 1 12 2 12 11 -2 5 -10 15 -18 22 -18 6 0 1 10
-11 22 -16 16 -25 19 -33 11 -25 -25 44 -85 95 -82 15 1 12 3 -9 8 l-30 7 31
5 c21 3 31 1 32 -8 1 -7 3 -20 4 -28 1 -8 5 -12 9 -9 4 2 9 -2 12 -8 3 -10 7
-10 19 0 12 9 18 10 23 2 4 -6 13 -9 19 -7 7 3 19 1 27 -5 11 -8 11 -9 -3 -4
-11 3 -19 -2 -23 -15 -7 -22 -25 -26 -25 -4 0 20 -10 19 -26 -2 -13 -17 -13
-17 -14 1 0 28 -13 10 -15 -21 0 -17 5 -28 17 -31 22 -5 24 -22 3 -22 -8 0
-15 -4 -15 -10 0 -5 7 -7 15 -4 11 5 15 -1 15 -25 0 -23 -4 -29 -15 -25 -18 7
-20 -12 -2 -23 6 -4 19 -22 28 -39 l17 -32 -34 22 c-18 11 -31 26 -29 33 2 7
-2 10 -13 7 -14 -5 -15 -4 -2 5 19 13 2 45 -26 48 -10 2 -13 0 -6 -3 12 -5 18
-34 7 -34 -3 0 -16 9 -28 20 -19 18 -20 22 -7 31 12 9 11 10 -4 5 -21 -7 -46
7 -97 53 -18 17 -39 31 -46 31 -7 0 -13 6 -13 13 0 6 -19 24 -42 40 -37 23
-277 204 -316 237 -7 6 -18 10 -25 7 -7 -2 -20 9 -29 25 -24 38 -38 35 -38 -8
0 -33 -1 -34 -17 -19 -14 14 -14 18 -2 26 11 7 11 9 1 9 -7 0 -12 8 -11 18 3
33 -1 52 -11 52 -6 0 -11 -94 -12 -257z m52 -78 c0 -158 -7 -204 -24 -159 -3
9 -6 87 -6 175 0 135 2 159 15 159 13 0 15 -26 15 -175z m660 51 c0 -2 -11 -6
-25 -8 -13 -3 -22 -1 -19 3 5 9 44 13 44 5z m160 -81 c7 -9 8 -15 2 -15 -5 0
-12 7 -16 15 -3 8 -4 15 -2 15 2 0 9 -7 16 -15z m-30 -25 c0 -5 -2 -10 -4 -10
-3 0 -8 5 -11 10 -3 6 -1 10 4 10 6 0 11 -4 11 -10z m75 0 c-3 -5 -12 -10 -18
-10 -7 0 -6 4 3 10 19 12 23 12 15 0z m-98 -202 c-3 -7 -5 -2 -5 12 0 14 2 19
5 13 2 -7 2 -19 0 -25z m-740 -70 c-3 -8 -6 -5 -6 6 -1 11 2 17 5 13 3 -3 4
-12 1 -19z m48 12 c-3 -5 -11 -10 -16 -10 -6 0 -7 5 -4 10 3 6 11 10 16 10 6
0 7 -4 4 -10z m745 -5 c-7 -8 -18 -15 -24 -15 -6 0 -2 7 8 15 25 19 32 19 16
0z m-710 -15 c-9 -6 -9 -9 1 -12 8 -3 12 -7 9 -10 -3 -3 -16 1 -30 9 -19 10
-21 13 -7 13 10 0 15 4 12 10 -3 6 1 7 10 3 12 -4 13 -8 5 -13z m120 -60 c-12
-8 -12 -10 -1 -10 8 0 12 -3 8 -6 -9 -9 -28 6 -22 17 4 5 12 9 18 9 7 0 6 -4
-3 -10z m-45 -10 c3 -5 2 -10 -4 -10 -5 0 -13 5 -16 10 -3 6 -2 10 4 10 5 0
13 -4 16 -10z m99 -9 c4 -5 -3 -7 -14 -4 -23 6 -26 13 -6 13 8 0 17 -4 20 -9z
m2220 -689 c-1 -2 -11 1 -21 7 -10 6 -14 11 -9 11 5 0 3 8 -5 18 -7 9 -1 6 13
-8 14 -14 24 -27 22 -28z m58 -154 c-9 -9 -15 -9 -24 0 -9 9 -7 12 12 12 19 0
21 -3 12 -12z m178 -133 c7 -9 8 -15 2 -15 -5 0 -12 7 -16 15 -3 8 -4 15 -2
15 2 0 9 -7 16 -15z m-236 -42 c-5 -5 -12 -12 -15 -16 -3 -5 -9 -2 -12 7 -5
12 0 16 15 16 12 0 17 -3 12 -7z m336 -2107 c0 -3 -4 -8 -10 -11 -5 -3 -10 -1
-10 4 0 6 5 11 10 11 6 0 10 -2 10 -4z m-30 -26 c0 -5 -5 -10 -11 -10 -5 0 -7
5 -4 10 3 6 8 10 11 10 2 0 4 -4 4 -10z"/>
<path d="M4126 8681 c-3 -5 7 -17 22 -27 20 -13 24 -13 15 -2 -7 8 -10 18 -6
22 4 4 -1 4 -11 0 -14 -5 -17 -4 -12 4 4 7 5 12 2 12 -3 0 -7 -4 -10 -9z"/>
<path d="M5880 8660 c0 -5 5 -10 11 -10 5 0 7 5 4 10 -3 6 -8 10 -11 10 -2 0
-4 -4 -4 -10z"/>
<path d="M5926 8641 c-4 -5 -2 -12 3 -15 5 -4 12 -2 15 3 4 5 2 12 -3 15 -5 4
-12 2 -15 -3z"/>
<path d="M4243 8605 c0 -8 6 -16 14 -19 11 -4 11 -1 3 14 -13 24 -17 25 -17 5z"/>
<path d="M4277 8609 c7 -7 15 -10 18 -7 3 3 -2 9 -12 12 -14 6 -15 5 -6 -5z"/>
<path d="M3173 8593 c-15 -5 -17 -23 -4 -23 5 0 11 7 15 15 3 8 4 15 3 14 -1
0 -8 -3 -14 -6z"/>
<path d="M4299 8582 c8 -6 10 -15 5 -23 -6 -11 -5 -12 7 -3 20 16 106 3 95
-15 -3 -4 4 -8 15 -8 10 -1 19 0 19 2 0 8 -63 37 -84 39 -12 2 -32 6 -46 10
-17 5 -21 4 -11 -2z"/>
<path d="M6002 8571 c-11 -6 -10 -10 3 -15 10 -3 23 -1 31 4 9 8 19 7 37 -4
20 -13 24 -14 24 -2 0 8 -6 12 -15 8 -9 -3 -13 -1 -9 4 3 6 -3 10 -13 11 -11
1 -22 -2 -25 -8 -4 -5 -11 -9 -16 -9 -6 0 -7 5 -4 10 7 12 4 12 -13 1z"/>
<path d="M6168 8518 c14 -15 25 -19 32 -12 6 6 -1 14 -22 22 l-32 12 22 -22z"/>
<path d="M4430 8521 c-24 -7 -24 -7 9 -14 22 -5 39 -3 45 4 8 9 8 10 -1 5 -7
-4 -13 -2 -13 3 0 12 -4 12 -40 2z"/>
<path d="M6133 8512 c15 -10 25 -21 22 -24 -3 -2 11 -4 30 -3 19 0 38 5 42 9
4 5 -2 6 -15 3 -15 -3 -38 2 -58 14 -44 24 -58 25 -21 1z"/>
<path d="M4496 8502 c-3 -4 4 -16 15 -25 11 -10 17 -23 13 -29 -5 -8 -1 -9 12
-5 19 7 19 7 0 -8 -27 -20 -13 -30 16 -12 12 8 34 18 48 21 16 4 13 0 -10 -10
-31 -14 -33 -17 -17 -29 15 -11 17 -32 17 -173 l0 -161 -35 -7 c-19 -3 -35
-11 -35 -16 0 -5 9 -7 20 -3 28 9 52 -6 39 -25 -8 -12 -12 -12 -16 -2 -3 9
-16 11 -39 6 -23 -4 -34 -2 -34 5 0 7 -4 9 -10 6 -19 -12 -567 173 -722 244
-26 11 -53 21 -61 21 -8 0 -20 7 -27 15 -28 34 -50 11 -50 -51 0 -19 -3 -34
-7 -35 -5 0 -27 -2 -50 -4 -30 -3 -43 0 -43 9 0 7 -6 13 -13 13 -10 0 -11 -5
-3 -23 6 -12 16 -20 22 -17 6 2 19 -3 28 -13 13 -12 20 -14 29 -5 8 8 8 11 -1
11 -7 0 -12 5 -12 10 0 16 20 11 27 -6 4 -10 -1 -20 -12 -27 -16 -9 -15 -12
16 -27 24 -13 38 -15 47 -8 9 8 11 7 7 -5 -8 -20 11 -31 32 -17 16 10 15 11
-6 6 -18 -4 -21 -2 -13 6 9 9 18 8 37 0 33 -15 38 -15 29 1 -4 6 1 5 11 -5 18
-16 13 -39 -8 -37 -9 0 -9 2 1 6 6 2 12 9 12 14 0 6 -9 5 -21 -2 -15 -8 -19
-8 -15 0 4 6 3 11 -3 11 -5 0 -12 -4 -16 -9 -7 -12 194 -87 257 -95 12 -2 30
-6 38 -10 8 -3 184 -39 390 -80 575 -115 796 -165 1090 -250 228 -66 249 -72
440 -141 519 -188 998 -441 1413 -748 207 -153 205 -134 -10 73 -435 420 -947
779 -1514 1061 -218 108 -429 200 -441 193 -6 -4 -8 -3 -5 3 4 6 -8 17 -26 24
-17 7 -69 30 -115 51 -46 21 -86 38 -90 38 -4 0 -20 7 -37 16 -16 9 -69 33
-117 54 -65 29 -89 35 -99 26 -9 -8 -10 -8 -5 1 3 6 2 14 -3 17 -5 3 -11 -1
-15 -9 -5 -14 -38 -16 -52 -2 -4 3 5 4 20 1 29 -5 33 1 12 22 -18 18 -70 38
-61 24 3 -6 1 -10 -4 -10 -6 0 -11 6 -11 14 0 16 -27 29 -42 19 -6 -3 -8 -2
-5 3 3 6 -21 22 -54 36 -32 15 -57 23 -54 18 3 -5 -3 -8 -14 -7 -16 1 -18 4
-8 16 9 12 9 13 0 7 -7 -4 -13 -3 -13 2 0 5 -8 12 -17 16 -10 3 -23 8 -30 12
-6 3 -14 1 -17 -4z m161 -95 c0 -7 -12 -14 -26 -15 -24 -2 -24 -2 -5 13 19 15
19 15 -1 9 -15 -4 -17 -4 -6 4 17 12 38 6 38 -11z m33 9 c0 -3 -4 -8 -10 -11
-5 -3 -10 -1 -10 4 0 6 5 11 10 11 6 0 10 -2 10 -4z m-824 -364 c-10 -2 -22 0
-28 6 -6 6 0 7 19 4 21 -5 23 -7 9 -10z m771 -18 c-9 -9 -28 6 -21 18 4 6 10
6 17 -1 6 -6 8 -13 4 -17z m-622 -22 c-3 -3 -11 0 -18 7 -9 10 -8 11 6 5 10
-3 15 -9 12 -12z"/>
<path d="M4455 8480 c3 -5 8 -10 11 -10 2 0 4 5 4 10 0 6 -5 10 -11 10 -5 0
-7 -4 -4 -10z"/>
<path d="M3300 8460 c0 -5 5 -10 11 -10 5 0 7 5 4 10 -3 6 -8 10 -11 10 -2 0
-4 -4 -4 -10z"/>
<path d="M3264 8449 c-4 -8 -3 -9 4 -5 7 4 12 3 12 -3 0 -5 -4 -11 -9 -13 -5
-1 2 -11 15 -21 19 -14 23 -15 18 -2 -7 17 11 21 19 5 3 -6 4 -5 3 2 -2 7 -13
12 -24 11 -15 -2 -20 2 -16 11 7 18 -12 30 -22 15z"/>
<path d="M3330 8440 c0 -5 5 -10 11 -10 5 0 7 5 4 10 -3 6 -8 10 -11 10 -2 0
-4 -4 -4 -10z"/>
<path d="M6244 8411 c0 -12 6 -17 18 -13 10 2 18 6 18 8 0 2 -8 8 -18 13 -14
7 -18 6 -18 -8z"/>
<path d="M3505 8400 c3 -5 11 -10 16 -10 6 0 7 5 4 10 -3 6 -11 10 -16 10 -6
0 -7 -4 -4 -10z"/>
<path d="M3387 8384 c12 -3 25 -14 28 -25 4 -10 11 -19 17 -19 22 0 -20 45
-43 47 -22 1 -22 1 -2 -3z"/>
<path d="M3335 8350 c3 -5 8 -10 11 -10 2 0 4 5 4 10 0 6 -5 10 -11 10 -5 0
-7 -4 -4 -10z"/>
<path d="M3385 8350 c3 -5 8 -10 11 -10 2 0 4 5 4 10 0 6 -5 10 -11 10 -5 0
-7 -4 -4 -10z"/>
<path d="M3360 8336 c0 -2 8 -10 18 -17 15 -13 16 -12 3 4 -13 16 -21 21 -21
13z"/>
<path d="M3407 8318 c-8 -21 -6 -33 5 -30 6 1 16 -5 23 -14 9 -13 14 -14 20
-4 6 9 4 11 -5 5 -8 -5 -11 -3 -8 6 3 8 14 13 26 11 11 -2 23 1 25 5 3 5 -14
8 -38 7 -34 -1 -42 1 -38 12 3 8 3 14 0 14 -3 0 -7 -6 -10 -12z"/>
<path d="M3470 8264 c-11 -13 -10 -19 8 -37 12 -12 22 -16 22 -10 0 6 -7 14
-16 17 -15 6 -15 8 1 26 10 11 13 20 8 20 -6 0 -16 -7 -23 -16z"/>
<path d="M6715 8250 c-3 -5 -1 -10 4 -10 6 0 11 5 11 10 0 6 -2 10 -4 10 -3 0
-8 -4 -11 -10z"/>
<path d="M5460 8160 c6 -11 12 -20 14 -20 2 0 2 9 -1 20 -3 11 -9 20 -15 20
-5 0 -4 -9 2 -20z"/>
<path d="M5538 8133 c6 -2 10 -8 8 -12 -3 -4 12 -7 32 -8 20 0 31 2 24 4 -6 3
-9 9 -6 15 4 6 -2 6 -14 -1 -14 -7 -23 -8 -27 -1 -3 5 -12 10 -18 9 -9 0 -8
-2 1 -6z"/>
<path d="M5633 8123 c9 -2 23 -2 30 0 6 3 -1 5 -18 5 -16 0 -22 -2 -12 -5z"/>
<path d="M2965 7960 c-33 -8 -30 -10 32 -14 24 -1 48 2 55 7 9 6 8 7 -4 3 -10
-3 -20 -1 -23 4 -7 11 -17 11 -60 0z"/>
<path d="M3095 7950 c11 -5 27 -9 35 -9 13 -1 13 0 0 9 -8 5 -24 9 -35 9 l-20
0 20 -9z"/>
<path d="M3153 7930 c-2 -25 14 -26 20 -2 4 16 5 16 6 -1 1 -15 7 -17 39 -13
26 4 33 3 22 -4 -8 -5 -11 -10 -7 -10 4 0 3 -9 -3 -20 -12 -22 -45 -27 -56 -8
-5 7 -11 5 -21 -7 -18 -26 -16 -35 7 -35 17 0 20 -7 20 -40 0 -33 -3 -40 -20
-40 -13 0 -18 -5 -14 -15 4 -9 -3 -16 -21 -21 -21 -5 -24 -9 -13 -15 26 -14
229 -79 249 -79 10 0 20 -4 23 -9 3 -4 23 -11 43 -15 64 -10 114 -27 108 -35
-2 -5 17 -9 43 -9 26 0 67 -7 92 -15 l45 -15 -42 -1 c-42 -1 -43 -2 -43 -36
l0 -35 -50 0 c-27 0 -50 -4 -50 -10 0 -5 11 -10 25 -10 23 0 25 -4 25 -40 0
-28 -4 -40 -14 -40 -10 0 -16 -22 -21 -80 -6 -69 -10 -80 -26 -80 -16 0 -19
-8 -19 -54 0 -46 -3 -54 -17 -51 -10 2 -24 4 -30 4 -9 1 -13 18 -13 51 0 28
-4 50 -10 50 -5 0 -10 -22 -10 -50 0 -27 5 -50 10 -50 6 0 10 -4 10 -10 0 -5
-8 -10 -17 -10 -15 0 -14 -2 3 -16 18 -14 16 -15 -21 -8 -22 5 -56 7 -75 7
l-35 -2 25 15 c19 11 20 14 5 10 -11 -3 -33 -8 -50 -11 -29 -5 -28 -5 5 10
l35 15 -35 -7 c-19 -4 -51 -6 -70 -5 -19 2 -48 4 -65 5 -16 1 -33 6 -36 11 -4
5 -22 10 -40 12 -43 4 -80 12 -87 19 -3 2 -11 0 -19 -6 -10 -9 -13 -8 -13 4 0
8 -9 17 -21 20 -16 4 -18 3 -8 -9 16 -19 6 -18 -36 6 -20 11 -42 20 -51 20 -8
0 -13 4 -10 9 4 5 -4 7 -16 3 -21 -5 -21 -6 -2 -13 19 -7 19 -8 -1 -9 l-20 -1
20 -9 c27 -12 43 -12 25 0 -13 8 -13 10 1 10 9 0 20 -7 23 -16 3 -8 11 -12 16
-9 6 4 17 2 24 -4 7 -6 31 -13 52 -16 22 -2 57 -8 79 -14 22 -5 41 -8 44 -6 2
3 10 0 17 -6 6 -5 32 -11 56 -13 23 -2 50 -6 58 -9 22 -9 237 -36 257 -33 10
2 20 0 23 -5 3 -4 39 -9 80 -11 41 -2 77 -6 80 -9 3 -3 82 -16 175 -29 300
-39 390 -52 410 -56 11 -2 72 -13 135 -24 164 -30 411 -86 580 -132 231 -63
613 -190 658 -218 12 -8 -56 -10 -253 -5 -482 10 -916 37 -1250 77 -99 11
-199 21 -222 22 -22 1 -39 5 -36 10 3 5 -8 7 -25 4 -17 -2 -29 -1 -26 3 2 4
-4 8 -13 8 -33 1 -77 10 -173 35 -52 13 -99 22 -103 19 -4 -3 -15 1 -24 8 -13
11 -17 10 -29 -6 -8 -10 -14 -14 -14 -8 0 7 -6 13 -12 16 -7 2 -5 3 5 2 9 -2
17 0 17 5 0 12 -54 20 -64 9 -13 -12 -29 -12 -21 0 3 6 -10 13 -30 17 -19 3
-35 11 -35 17 0 6 -3 7 -7 4 -3 -4 -12 -2 -20 4 -16 14 -16 13 -2 -52 29 -133
128 -300 239 -402 76 -69 191 -149 208 -142 7 2 11 1 8 -4 -8 -12 153 -85 267
-120 118 -37 478 -111 717 -146 109 -16 243 -28 355 -32 179 -6 181 -6 309 26
70 18 134 30 142 27 8 -3 14 -2 14 3 0 14 102 22 138 12 20 -6 30 -6 27 0 -4
5 -14 10 -23 10 -9 1 12 5 48 10 101 12 210 -2 210 -27 0 -8 -4 -12 -10 -9 -5
3 -10 -1 -10 -9 0 -9 -7 -16 -16 -16 -14 0 -16 -8 -12 -49 4 -41 1 -54 -18
-77 -13 -14 -21 -32 -17 -38 3 -6 0 -5 -8 2 -16 14 -29 16 -29 2 0 -13 65 -29
90 -23 12 3 20 0 20 -6 0 -7 5 -9 11 -5 6 3 21 2 32 -4 12 -6 67 -23 121 -37
529 -140 910 -340 1189 -622 140 -142 236 -288 312 -476 32 -80 34 -81 44 -54
6 15 14 39 17 52 8 34 17 31 53 -12 75 -91 136 -255 161 -433 27 -192 5 -604
-46 -840 -8 -35 33 35 111 190 127 254 213 482 275 734 189 763 75 1415 -342
1958 -361 470 -1246 1027 -2138 1344 -450 161 -1067 306 -1475 348 -27 3 -113
12 -190 21 -77 9 -149 15 -160 14 -11 -1 -40 1 -65 4 -98 14 -424 27 -434 17
-6 -6 -19 -10 -31 -9 -20 0 -20 1 0 8 16 7 14 9 -15 13 -19 4 -54 5 -77 4 -24
-1 -43 1 -43 4 0 4 -15 7 -33 8 -26 1 -33 -3 -34 -18z m57 0 c0 -5 -5 -10 -11
-10 -5 0 -7 5 -4 10 3 6 8 10 11 10 2 0 4 -4 4 -10z m117 -6 c-3 -3 -12 -4
-19 -1 -8 3 -5 6 6 6 11 1 17 -2 13 -5z m-40 -90 c12 -11 13 -18 4 -27 -8 -8
-11 -7 -11 6 0 9 -4 17 -10 17 -5 0 -10 5 -10 10 0 14 9 12 27 -6z m476 -321
c-7 -2 -21 -2 -30 0 -10 3 -4 5 12 5 17 0 24 -2 18 -5z m-196 -489 c-3 -3 -12
-4 -19 -1 -8 3 -5 6 6 6 11 1 17 -2 13 -5z m303 -4 c-8 -5 -22 -9 -30 -9 -10
0 -8 3 5 9 27 12 43 12 25 0z m-66 -8 c2 -4 -11 -6 -30 -4 -19 2 -34 6 -34 8
0 8 59 4 64 -4z m-127 -8 c-3 -3 -12 -4 -19 -1 -8 3 -5 6 6 6 11 1 17 -2 13
-5z m86 -11 c-7 -2 -21 -2 -30 0 -10 3 -4 5 12 5 17 0 24 -2 18 -5z m-148
-323 c-19 -8 -18 -9 4 -9 30 -1 25 -6 -14 -15 -22 -5 -26 -4 -15 4 12 8 10 10
-10 11 l-25 1 25 8 c34 11 60 11 35 0z m2335 -769 c0 -5 -7 -11 -15 -15 -9 -3
-15 0 -15 9 0 8 7 15 15 15 8 0 15 -4 15 -9z m-34 -146 c-3 -10 1 -15 11 -15
9 0 14 -3 10 -6 -11 -11 -46 7 -40 22 3 7 10 14 15 14 6 0 8 -7 4 -15z m-41
-15 c3 -6 -1 -7 -9 -4 -18 7 -21 14 -7 14 6 0 13 -4 16 -10z m142 -16 c-3 -3
-12 -4 -19 -1 -8 3 -5 6 6 6 11 1 17 -2 13 -5z"/>
<path d="M2988 7933 c7 -3 16 -2 19 1 4 3 -2 6 -13 5 -11 0 -14 -3 -6 -6z"/>
<path d="M3058 7928 c9 -9 15 -9 24 0 9 9 7 12 -12 12 -19 0 -21 -3 -12 -12z"/>
<path d="M3125 7920 c3 -5 8 -10 11 -10 2 0 4 5 4 10 0 6 -5 10 -11 10 -5 0
-7 -4 -4 -10z"/>
<path d="M3080 7740 c0 -5 9 -10 20 -10 11 0 20 5 20 10 0 6 -9 10 -20 10 -11
0 -20 -4 -20 -10z"/>
<path d="M1850 7690 c6 -11 13 -20 16 -20 2 0 0 9 -6 20 -6 11 -13 20 -16 20
-2 0 0 -9 6 -20z"/>
<path d="M7920 7520 c-9 -6 -10 -10 -3 -10 6 0 15 5 18 10 8 12 4 12 -15 0z"/>
<path d="M3528 7513 c7 -3 16 -2 19 1 4 3 -2 6 -13 5 -11 0 -14 -3 -6 -6z"/>
<path d="M7956 7506 c6 -15 4 -17 -6 -11 -9 6 -11 4 -5 -4 5 -9 10 -10 18 -2
8 8 7 14 -2 24 -10 10 -11 8 -5 -7z"/>
<path d="M8030 7427 c0 -15 31 -47 46 -47 4 0 -2 7 -14 16 -12 8 -22 20 -22
27 0 8 3 8 12 -1 7 -7 16 -12 22 -12 11 0 -25 29 -36 30 -5 0 -8 -6 -8 -13z"/>
<path d="M8091 7389 c-1 -9 7 -23 17 -30 15 -12 16 -12 6 1 -6 8 -14 22 -17
30 -5 13 -6 12 -6 -1z"/>
<path d="M8060 7366 c0 -2 7 -7 16 -10 8 -3 12 -2 9 4 -6 10 -25 14 -25 6z"/>
<path d="M2285 7340 c-4 -6 1 -7 11 -3 13 5 15 3 9 -7 -5 -9 -4 -11 4 -6 6 4
9 12 6 17 -8 12 -22 12 -30 -1z"/>
<path d="M2340 7316 c0 -2 7 -7 16 -10 8 -3 12 -2 9 4 -6 10 -25 14 -25 6z"/>
<path d="M2386 7303 c-6 -14 -5 -15 5 -6 7 7 10 15 7 18 -3 3 -9 -2 -12 -12z"/>
<path d="M2455 7260 c3 -5 8 -10 11 -10 2 0 4 5 4 10 0 6 -5 10 -11 10 -5 0
-7 -4 -4 -10z"/>
<path d="M2488 7248 c5 -5 16 -8 23 -6 8 3 3 7 -10 11 -17 4 -21 3 -13 -5z"/>
<path d="M2563 7224 c0 -16 6 -17 25 -5 11 6 9 9 -5 13 -12 3 -20 0 -20 -8z"/>
<path d="M2618 7213 c6 -2 9 -10 6 -15 -4 -7 -2 -8 5 -4 13 9 5 26 -12 25 -9
0 -8 -2 1 -6z"/>
<path d="M2670 7186 c0 -2 7 -7 16 -10 8 -3 12 -2 9 4 -6 10 -25 14 -25 6z"/>
<path d="M2721 7177 c-8 -10 -7 -14 2 -15 6 0 23 -3 37 -6 20 -5 20 -4 -4 5
-21 9 -25 14 -15 20 8 5 9 9 3 9 -6 0 -17 -6 -23 -13z"/>
<path d="M3150 7100 c8 -5 20 -10 25 -10 6 0 3 5 -5 10 -8 5 -19 10 -25 10 -5
0 -3 -5 5 -10z"/>
<path d="M3353 7093 c9 -2 23 -2 30 0 6 3 -1 5 -18 5 -16 0 -22 -2 -12 -5z"/>
<path d="M5820 5940 c-20 -6 -21 -8 -5 -8 11 0 34 4 50 8 27 7 27 8 5 8 -14 0
-36 -4 -50 -8z"/>
<path d="M5828 5913 c6 -2 18 -2 25 0 6 3 1 5 -13 5 -14 0 -19 -2 -12 -5z"/>
<path d="M5570 5820 c-8 -5 -10 -10 -5 -10 6 0 17 5 25 10 8 5 11 10 5 10 -5
0 -17 -5 -25 -10z"/>
<path d="M5658 5823 c7 -3 16 -2 19 1 4 3 -2 6 -13 5 -11 0 -14 -3 -6 -6z"/>
<path d="M5655 5799 c18 -5 33 -5 39 1 7 7 -4 10 -29 9 -40 -1 -40 -1 -10 -10z"/>
<path d="M5638 5783 c6 -2 18 -2 25 0 6 3 1 5 -13 5 -14 0 -19 -2 -12 -5z"/>
<path d="M5660 5769 c-22 -8 -21 -8 7 -4 18 2 35 1 37 -4 3 -5 19 -11 35 -13
21 -3 28 -1 24 9 -3 8 -14 11 -28 7 -13 -3 -26 -1 -29 5 -8 12 -11 12 -46 0z"/>
<path d="M6260 5073 c-41 -2 -82 -6 -90 -10 -8 -3 -19 -5 -24 -4 -5 1 -43 -4
-85 -10 l-76 -13 89 -22 c50 -13 94 -20 100 -17 5 4 6 1 1 -7 -6 -10 -3 -12
13 -8 12 4 20 3 17 -1 -2 -5 15 -14 38 -20 71 -21 246 -110 257 -130 9 -18 6
-21 -30 -32 -21 -7 -37 -16 -34 -20 3 -5 -1 -6 -8 -4 -20 8 -80 -42 -137 -114
-51 -64 -60 -77 -41 -66 6 3 10 2 10 -2 0 -5 39 -14 88 -21 326 -44 544 -229
597 -506 37 -195 -6 -473 -114 -735 -32 -76 -27 -79 26 -21 36 39 126 187 182
299 28 55 54 101 57 101 13 0 -33 -216 -68 -323 -107 -324 -353 -621 -657
-794 -71 -40 -74 -43 -42 -43 63 0 283 51 429 99 181 59 384 150 478 213 217
145 392 437 448 748 73 405 -39 789 -312 1067 -276 282 -650 415 -1112 396z"/>
<path d="M8540 4619 c0 -6 7 -8 16 -5 12 5 14 1 9 -17 -5 -17 -4 -19 4 -7 9
13 11 13 11 -1 0 -9 -10 -29 -22 -45 -21 -28 -20 -28 12 3 28 27 31 34 20 47
-7 9 -9 16 -4 16 14 0 -19 20 -33 20 -7 0 -13 -5 -13 -11z"/>
<path d="M8813 4606 c-106 -34 -140 -96 -156 -283 -13 -164 1 -335 35 -401 19
-39 34 -52 83 -77 l60 -30 363 -3 362 -3 0 -120 0 -119 -330 0 -330 0 0 70 c0
63 -2 71 -24 86 -23 15 -32 14 -143 -18 l-118 -34 3 -100 c5 -170 42 -250 135
-290 38 -17 80 -19 432 -22 418 -4 498 2 557 42 84 56 102 129 102 401 0 233
-12 292 -69 350 -61 61 -94 65 -487 65 l-348 0 0 100 0 100 300 0 300 0 0 -59
c0 -51 3 -61 24 -74 22 -15 32 -13 145 21 l122 37 -6 85 c-13 173 -53 244
-157 275 -70 20 -789 21 -855 1z"/>
<path d="M10047 4602 c-15 -17 -17 -77 -17 -664 0 -612 1 -646 18 -661 15 -14
41 -17 144 -17 92 0 128 4 137 13 7 9 12 99 13 260 l3 246 280 -259 280 -259
203 -1 202 0 10 26 c6 14 10 29 10 33 0 4 -118 113 -262 242 -145 129 -309
276 -365 326 l-103 92 322 287 c178 158 324 293 326 300 2 7 -2 22 -8 33 -10
20 -19 21 -196 21 l-186 0 -253 -240 c-139 -132 -256 -240 -259 -240 -3 0 -6
103 -6 228 0 164 -3 231 -12 240 -8 8 -53 12 -138 12 -110 0 -129 -2 -143 -18z"/>
<path d="M11341 4594 c-13 -29 -34 2 373 -535 l156 -207 0 -284 c0 -208 3
-287 12 -296 8 -8 53 -12 138 -12 110 0 129 2 143 18 15 16 17 53 17 307 l0
289 253 335 c138 184 255 340 260 347 4 7 2 24 -5 38 l-11 26 -156 0 -156 -1
-155 -220 c-85 -121 -160 -225 -166 -230 -7 -5 -66 69 -175 221 l-164 230
-176 0 -176 0 -12 -26z"/>
<path d="M12832 4608 c-9 -9 -12 -170 -12 -663 0 -619 1 -653 18 -668 15 -14
41 -17 139 -17 103 0 122 3 136 18 15 16 17 49 17 250 l0 231 353 3 c385 3
396 5 459 65 56 54 63 93 63 368 0 234 -1 253 -21 296 -12 25 -34 58 -50 72
-60 56 -74 57 -604 57 -365 0 -489 -3 -498 -12z m862 -294 c13 -12 16 -38 16
-120 0 -154 21 -144 -310 -144 l-270 0 0 140 0 140 274 0 c236 0 277 -2 290
-16z"/>
<path d="M14167 4602 c-15 -17 -17 -77 -17 -664 0 -612 1 -646 18 -661 15 -14
41 -17 143 -17 84 0 129 4 137 12 9 9 12 77 12 245 l0 233 90 0 89 0 208 -245
208 -245 182 0 c170 0 183 1 193 19 5 11 10 26 10 35 0 8 -90 107 -200 219
-110 113 -200 207 -200 209 0 3 32 8 72 11 97 8 154 38 193 102 l30 48 3 271
3 271 -28 55 c-30 58 -71 93 -132 110 -22 6 -226 10 -517 10 -453 0 -482 -1
-497 -18z m861 -284 c8 -8 12 -53 12 -135 0 -123 0 -124 -26 -133 -14 -6 -142
-10 -290 -10 l-264 0 0 145 0 145 278 0 c203 0 281 -3 290 -12z"/>
<path d="M15721 4575 c-56 -17 -86 -46 -108 -104 -15 -41 -18 -95 -21 -493 -4
-567 2 -607 104 -658 l49 -25 485 0 c473 0 486 1 531 21 56 26 83 67 99 149
16 85 9 945 -8 997 -20 59 -57 96 -115 113 -71 21 -948 21 -1016 0z m899 -630
l0 -405 -390 0 -390 0 0 405 0 405 390 0 390 0 0 -405z"/>
<path d="M8499 4537 c6 -8 7 -18 3 -22 -4 -5 -1 -5 6 -1 10 6 10 11 1 22 -6 8
-14 14 -16 14 -3 0 0 -6 6 -13z"/>
<path d="M8483 4465 c0 -8 4 -12 9 -9 5 3 6 10 3 15 -9 13 -12 11 -12 -6z"/>
<path d="M6062 3714 c-66 -17 -114 -42 -107 -54 4 -6 -1 -7 -11 -3 -13 5 -16
2 -12 -9 4 -10 1 -15 -10 -14 -24 2 -77 -94 -97 -175 -21 -86 -15 -170 18
-243 27 -58 112 -150 130 -139 7 3 8 2 4 -2 -11 -13 85 -70 175 -105 97 -37
112 -38 62 -2 -204 148 -241 341 -102 538 22 32 48 64 56 70 19 14 7 34 -19
34 -13 0 -18 -4 -13 -12 4 -7 3 -8 -4 -4 -8 5 -4 26 12 71 l24 65 -27 -1 c-14
0 -50 -7 -79 -15z"/>
<path d="M5667 3709 c-9 -6 -14 -16 -11 -22 4 -7 3 -9 -1 -4 -5 4 -23 -7 -41
-24 -25 -24 -31 -36 -24 -49 6 -12 5 -17 -5 -17 -8 0 -11 5 -8 10 3 6 1 7 -5
4 -5 -4 -8 -16 -5 -26 3 -10 0 -22 -6 -25 -7 -5 -9 0 -5 11 5 17 5 17 -6 0 -6
-9 -8 -27 -5 -38 5 -14 3 -19 -3 -15 -13 8 -36 -30 -27 -44 3 -6 2 -10 -4 -10
-5 0 -10 -8 -11 -17 -10 -145 -10 -177 0 -163 8 12 9 9 5 -10 -3 -14 -1 -39 5
-55 6 -17 11 -31 11 -33 -3 -7 30 -60 48 -76 12 -11 21 -25 21 -32 0 -21 92
-90 170 -127 102 -48 181 -67 286 -67 82 0 204 24 204 39 0 4 -24 13 -52 20
-77 19 -193 69 -249 107 -27 18 -49 31 -49 28 0 -3 -14 11 -31 31 -17 19 -36
32 -42 28 -5 -3 -7 -1 -4 4 6 9 -36 98 -52 113 -18 16 -16 197 2 257 l16 52
-51 -2 -51 -2 2 83 c1 45 1 82 -1 82 -2 0 -11 -5 -21 -11z m-89 -194 c-3 -3
-9 2 -12 12 -6 14 -5 15 5 6 7 -7 10 -15 7 -18z"/>
<path d="M6891 3255 c-1 -6 -28 -41 -60 -78 -220 -247 -468 -367 -756 -367
-49 0 -121 7 -159 15 -38 8 -74 12 -80 8 -6 -3 -8 -3 -4 2 4 4 -16 19 -44 32
-28 13 -79 43 -112 67 -34 24 -68 46 -76 49 -12 4 -12 6 -1 6 9 1 6 8 -9 21
-19 16 -26 18 -39 7 -14 -11 -14 -10 -2 5 11 15 10 22 -10 46 -13 16 -30 38
-37 48 -7 11 -10 13 -6 5 5 -9 3 -12 -5 -7 -6 4 -9 11 -6 16 3 5 1 19 -6 31
-10 19 -13 20 -20 6 -11 -19 -15 -184 -6 -247 13 -92 27 -149 38 -156 5 -3 9
-13 9 -23 0 -9 9 -27 20 -39 11 -12 20 -25 20 -30 0 -17 58 -64 71 -57 7 5 10
4 5 -3 -3 -6 3 -16 14 -22 11 -6 20 -8 20 -5 0 4 7 0 15 -9 24 -23 81 -36 185
-43 312 -18 703 185 925 481 57 75 130 219 121 239 -2 7 -5 7 -5 2z m-1384
-307 c-3 -8 -6 -5 -6 6 -1 11 2 17 5 13 3 -3 4 -12 1 -19z"/>
<path d="M8940 2910 l0 -60 105 0 105 0 0 -235 0 -235 70 0 70 0 0 235 0 235
105 0 105 0 0 60 0 60 -280 0 -280 0 0 -60z"/>
<path d="M9540 2675 l0 -295 70 0 70 0 0 295 0 295 -70 0 -70 0 0 -295z"/>
<path d="M9850 2957 c-47 -24 -51 -44 -48 -294 4 -305 -22 -278 263 -278 209
0 215 1 237 23 20 19 23 32 23 109 l0 86 -50 14 c-84 22 -85 21 -85 -47 l0
-60 -125 0 -125 0 0 170 0 170 125 0 125 0 0 -55 c0 -63 1 -63 91 -44 l51 11
-4 79 c-3 66 -7 82 -26 101 -22 22 -30 23 -225 26 -149 2 -208 -1 -227 -11z"/>
<path d="M10450 2675 l0 -295 70 0 69 0 3 109 3 110 117 -110 118 -109 95 0
c76 0 95 3 95 14 0 8 -70 77 -155 153 -85 76 -155 141 -155 144 0 3 61 61 135
128 74 68 135 129 135 137 0 11 -19 14 -87 14 l-87 0 -105 -102 -106 -103 -3
103 -3 102 -69 0 -70 0 0 -295z"/>
<path d="M11080 2675 l0 -295 250 0 250 0 0 65 0 65 -180 0 -180 0 0 60 0 60
105 0 105 0 0 60 0 60 -105 0 -105 0 0 50 0 50 280 0 280 0 0 -235 0 -235 70
0 70 0 0 235 0 235 105 0 105 0 0 60 0 60 -525 0 -525 0 0 -295z"/>
<path d="M12570 2958 c-13 -8 -30 -25 -37 -38 -18 -35 -17 -141 2 -167 14 -20
12 -23 -50 -67 -73 -53 -80 -69 -73 -186 6 -110 13 -114 197 -118 l149 -3 37
32 37 33 25 -32 c24 -32 25 -32 114 -32 64 0 89 3 89 12 0 7 -30 43 -67 80
l-67 68 47 48 c26 26 47 52 47 58 0 15 -64 74 -80 74 -8 0 -35 -20 -60 -45
l-46 -45 -97 98 c-53 55 -97 104 -97 111 0 7 20 11 55 11 l55 0 0 -41 0 -41
46 7 c77 11 77 10 72 82 -6 98 -20 107 -161 111 -77 2 -120 -1 -137 -10z m153
-440 c-13 -15 -32 -18 -105 -18 l-88 0 0 38 c0 33 6 42 48 74 l47 36 57 -56
c54 -53 57 -57 41 -74z"/>
<path d="M13270 2910 l0 -60 105 0 105 0 0 -235 0 -235 70 0 70 0 0 235 0 235
105 0 105 0 0 60 0 60 -280 0 -280 0 0 -60z"/>
<path d="M13870 2676 l0 -296 70 0 70 0 0 110 0 110 34 0 c32 0 42 -8 123
-109 l88 -110 136 0 136 -1 24 63 25 62 131 3 131 3 25 -63 25 -63 76 -3 c46
-2 76 1 76 7 0 6 -58 138 -129 293 l-129 283 -68 0 -68 0 -121 -267 -121 -267
-77 83 -76 84 46 5 c80 9 88 25 88 182 0 191 19 179 -280 183 l-235 3 0 -295z
m368 162 c7 -7 12 -30 12 -53 0 -23 -5 -46 -12 -53 -8 -8 -49 -12 -120 -12
l-108 0 0 65 0 65 108 0 c71 0 112 -4 120 -12z m501 -101 c51 -114 53 -107
-32 -107 l-75 0 37 85 c20 46 37 85 39 85 2 0 16 -28 31 -63z"/>
<path d="M14950 2961 c0 -6 59 -139 132 -296 l132 -285 52 0 52 0 126 285 c69
157 126 289 126 295 0 6 -29 10 -68 10 l-69 0 -79 -185 c-43 -102 -82 -181
-86 -177 -4 4 -42 86 -85 182 l-79 175 -77 3 c-48 2 -77 -1 -77 -7z"/>
<path d="M15600 2675 l0 -295 250 0 250 0 0 65 0 65 -180 0 -180 0 0 60 0 60
105 0 105 0 0 60 0 60 -105 0 -105 0 0 50 0 50 180 0 180 0 0 60 0 60 -250 0
-250 0 0 -295z"/>
<path d="M16200 2675 l0 -295 240 0 240 0 0 65 0 65 -170 0 -170 0 0 230 0
230 -70 0 -70 0 0 -295z"/>
</g>
</svg>
