<svg xmlns="http://www.w3.org/2000/svg" version="1.1" xmlns:xlink="http://www.w3.org/1999/xlink" xmlns:svgjs="http://svgjs.dev/svgjs" viewBox="0 0 5.162777919264739 5.296465218181965"><g transform="matrix(1,0,0,1,0.4357590768198696,3.3907354382370953)"><rect width="5.162777919264739" height="5.296465218181965" x="-0.4357590768198696" y="-3.3907354382370953" fill="#ffffff"></rect><g><path d=" M 0.542724609375 0.21166992187500022 L 0.526611328125 0.21166992187500022 Q 0.520751953125 0.19482421875000022 0.5079345703125 0.17358398437500022 Q 0.4951171875 0.15234375000000022 0.4742431640625 0.13366699218750022 Q 0.453369140625 0.11499023437500022 0.4237060546875 0.10253906250000022 Q 0.39404296875 0.09008789062500022 0.353759765625 0.09008789062500022 Q 0.31787109375 0.09008789062500022 0.2900390625 0.10107421875000022 Q 0.26220703125 0.11206054687500022 0.2435302734375 0.13183593750000022 Q 0.224853515625 0.15161132812500022 0.21533203125 0.17871093750000022 Q 0.205810546875 0.20581054687500022 0.205810546875 0.23876953125000022 Q 0.205810546875 0.2915039062500002 0.2354736328125 0.3394775390625002 Q 0.26513671875 0.3874511718750002 0.309814453125 0.4343261718750002 Q 0.3544921875 0.4812011718750002 0.406494140625 0.5280761718750002 Q 0.45849609375 0.5749511718750002 0.503173828125 0.6254882812500002 Q 0.5478515625 0.6760253906250002 0.5775146484375 0.7313232421875002 Q 0.607177734375 0.7866210937500002 0.607177734375 0.8503417968750002 Q 0.607177734375 0.8979492187500002 0.5906982421875 0.9459228515625002 Q 0.57421875 0.9938964843750002 0.539794921875 1.0319824218750002 Q 0.50537109375 1.0700683593750002 0.451171875 1.0938720703125002 Q 0.39697265625 1.1176757812500002 0.322265625 1.1176757812500002 Q 0.280517578125 1.1176757812500002 0.2427978515625 1.1099853515625002 Q 0.205078125 1.1022949218750002 0.1732177734375 1.0909423828125002 Q 0.141357421875 1.0795898437500002 0.1160888671875 1.0664062500000002 Q 0.0908203125 1.0532226562500002 0.07470703125 1.0422363281250002 L 0.091552734375 0.8803710937500002 L 0.10986328125 0.8803710937500002 Q 0.117919921875 0.9147949218750002 0.13623046875 0.9459228515625002 Q 0.154541015625 0.9770507812500002 0.1812744140625 1.0008544921875002 Q 0.2080078125 1.0246582031250002 0.242431640625 1.0389404296875002 Q 0.27685546875 1.0532226562500002 0.31787109375 1.0532226562500002 Q 0.355224609375 1.0532226562500002 0.3848876953125 1.0418701171875002 Q 0.41455078125 1.0305175781250002 0.435791015625 1.0103759765625002 Q 0.45703125 0.9902343750000002 0.4683837890625 0.9624023437500002 Q 0.479736328125 0.9345703125000002 0.479736328125 0.9016113281250002 Q 0.479736328125 0.8554687500000002 0.462890625 0.8162841796875002 Q 0.446044921875 0.7770996093750002 0.4185791015625 0.7419433593750002 Q 0.39111328125 0.7067871093750002 0.3563232421875 0.6738281250000002 Q 0.321533203125 0.6408691406250002 0.284912109375 0.6075439453125002 Q 0.248291015625 0.5742187500000002 0.2135009765625 0.5390625000000002 Q 0.1787109375 0.5039062500000002 0.1512451171875 0.4639892578125002 Q 0.123779296875 0.4240722656250002 0.10693359375 0.3782958984375002 Q 0.090087890625 0.3325195312500002 0.090087890625 0.2775878906250002 Q 0.090087890625 0.21972656250000022 0.1124267578125 0.17321777343750022 Q 0.134765625 0.12670898437500022 0.1717529296875 0.09375000000000022 Q 0.208740234375 0.06079101562500022 0.255615234375 0.04321289062500022 Q 0.302490234375 0.025634765625000222 0.352294921875 0.025634765625000222 Q 0.388916015625 0.025634765625000222 0.419677734375 0.03149414062500022 Q 0.450439453125 0.03735351562500022 0.4749755859375 0.04541015625000022 Q 0.49951171875 0.05346679687500022 0.517822265625 0.06152343750000022 Q 0.5361328125 0.06958007812500022 0.5478515625 0.07470703125000022 L 0.542724609375 0.21166992187500022 Z M 0.8027343750000001 0.2863769531250002 Q 0.8027343750000001 0.22412109375000022 0.8009033203125001 0.17761230468750022 Q 0.7990722656250001 0.13110351562500022 0.7965087890625001 0.09741210937500022 Q 0.7939453125000001 0.06372070312500022 0.7899169921875001 0.04101562500000022 Q 0.7858886718750001 0.018310546875000222 0.7814941406250001 0.002929687500000222 L 0.7814941406250001 2.220446049250313e-16 L 0.9506835937500001 2.220446049250313e-16 L 0.9506835937500001 0.002929687500000222 Q 0.9462890625000001 0.018310546875000222 0.9426269531250001 0.04101562500000022 Q 0.9389648437500001 0.06372070312500022 0.9360351562500001 0.09741210937500022 Q 0.9331054687500001 0.13110351562500022 0.9316406250000001 0.17761230468750022 Q 0.9301757812500001 0.22412109375000022 0.9301757812500001 0.2863769531250002 L 0.9301757812500001 0.6511230468750002 L 1.169677734375 0.4365234375000002 Q 1.232666015625 0.3815917968750002 1.232666015625 0.3449707031250002 L 1.402587890625 0.3449707031250002 L 1.402587890625 0.3479003906250002 Q 1.383544921875 0.3537597656250002 1.3663330078125 0.3629150390625002 Q 1.34912109375 0.3720703125000002 1.3319091796875 0.3845214843750002 Q 1.314697265625 0.3969726562500002 1.2960205078125 0.4127197265625002 Q 1.27734375 0.4284667968750002 1.25537109375 0.4482421875000002 L 1.040771484375 0.6437988281250002 L 1.335205078125 0.9916992187500002 Q 1.348388671875 1.0078125000000002 1.36376953125 1.0242919921875002 Q 1.379150390625 1.0407714843750002 1.39453125 1.0546875000000002 Q 1.409912109375 1.0686035156250002 1.424560546875 1.0788574218750002 Q 1.439208984375 1.0891113281250002 1.45166015625 1.0920410156250002 L 1.45166015625 1.0949707031250002 L 1.2392578125 1.0949707031250002 Q 1.2392578125 1.0759277343750002 1.2293701171875 1.0554199218750002 Q 1.219482421875 1.0349121093750002 1.19384765625 1.0034179687500002 L 0.9301757812500001 0.6899414062500002 L 0.9301757812500001 0.8085937500000002 Q 0.9301757812500001 0.8708496093750002 0.9316406250000001 0.9173583984375002 Q 0.9331054687500001 0.9638671875000002 0.9360351562500001 0.9975585937500002 Q 0.9389648437500001 1.0312500000000002 0.9426269531250001 1.0539550781250002 Q 0.9462890625000001 1.0766601562500002 0.9506835937500001 1.0920410156250002 L 0.9506835937500001 1.0949707031250002 L 0.7814941406250001 1.0949707031250002 L 0.7814941406250001 1.0920410156250002 Q 0.7858886718750001 1.0766601562500002 0.7899169921875001 1.0539550781250002 Q 0.7939453125000001 1.0312500000000002 0.7965087890625001 0.9975585937500002 Q 0.7990722656250001 0.9638671875000002 0.8009033203125001 0.9173583984375002 Q 0.8027343750000001 0.8708496093750002 0.8027343750000001 0.8085937500000002 L 0.8027343750000001 0.2863769531250002 Z M 1.763671875 1.0861816406250002 L 1.505859375 0.5222167968750002 Q 1.491943359375 0.4899902343750002 1.475830078125 0.4603271484375002 Q 1.459716796875 0.4306640625000002 1.4454345703125 0.4072265625000002 Q 1.43115234375 0.3837890625000002 1.420166015625 0.3680419921875002 Q 1.4091796875 0.3522949218750002 1.405517578125 0.3479003906250002 L 1.405517578125 0.3449707031250002 L 1.597412109375 0.3449707031250002 L 1.597412109375 0.3479003906250002 Q 1.595947265625 0.3515625000000002 1.59521484375 0.3588867187500002 Q 1.594482421875 0.3662109375000002 1.594482421875 0.3720703125000002 Q 1.594482421875 0.3947753906250002 1.6014404296875 0.4222412109375002 Q 1.6083984375 0.4497070312500002 1.62744140625 0.4907226562500002 L 1.82958984375 0.9301757812500002 L 2.01416015625 0.4965820312500002 Q 2.02587890625 0.4694824218750002 2.0379638671875 0.4372558593750002 Q 2.050048828125 0.4050292968750002 2.050048828125 0.3720703125000002 Q 2.050048828125 0.3625488281250002 2.048583984375 0.3563232421875002 Q 2.047119140625 0.3500976562500002 2.045654296875 0.3479003906250002 L 2.045654296875 0.3449707031250002 L 2.177490234375 0.3449707031250002 L 2.177490234375 0.3479003906250002 Q 2.164306640625 0.3618164062500002 2.1441650390625 0.3973388671875002 Q 2.1240234375 0.4328613281250002 2.101318359375 0.4863281250000002 L 1.751953125 1.3183593750000002 Q 1.740234375 1.3454589843750002 1.7281494140625 1.3776855468750002 Q 1.716064453125 1.4099121093750002 1.716064453125 1.4428710937500002 Q 1.716064453125 1.4523925781250002 1.717529296875 1.4586181640625002 Q 1.718994140625 1.4648437500000002 1.720458984375 1.4670410156250002 L 1.720458984375 1.4699707031250002 L 1.58349609375 1.4699707031250002 L 1.58349609375 1.4670410156250002 Q 1.597412109375 1.4531250000000002 1.6175537109375 1.4183349609375002 Q 1.6376953125 1.3835449218750002 1.660400390625 1.3308105468750002 L 1.763671875 1.0861816406250002 Z M 2.75830078125 0.027099609375000222 Q 2.880615234375 0.027099609375000222 2.9842529296875 0.06701660156250022 Q 3.087890625 0.10693359375000022 3.163330078125 0.17907714843750022 Q 3.23876953125 0.2512207031250002 3.28125 0.3522949218750002 Q 3.32373046875 0.4533691406250002 3.32373046875 0.5756835937500002 Q 3.32373046875 0.6452636718750002 3.3076171875 0.7126464843750002 Q 3.29150390625 0.7800292968750002 3.2603759765625 0.8400878906250002 Q 3.229248046875 0.9001464843750002 3.183837890625 0.9510498046875002 Q 3.138427734375 1.0019531250000002 3.0802001953125 1.0389404296875002 Q 3.02197265625 1.0759277343750002 2.95166015625 1.0968017578125002 Q 2.88134765625 1.1176757812500002 2.800048828125 1.1176757812500002 Q 2.677734375 1.1176757812500002 2.5740966796875 1.0784912109375002 Q 2.470458984375 1.0393066406250002 2.39501953125 0.9675292968750002 Q 2.319580078125 0.8957519531250002 2.277099609375 0.7950439453125002 Q 2.234619140625 0.6943359375000002 2.234619140625 0.5712890625000002 Q 2.234619140625 0.5017089843750002 2.250732421875 0.4343261718750002 Q 2.266845703125 0.3669433593750002 2.2979736328125 0.3061523437500002 Q 2.3291015625 0.24536132812500022 2.3741455078125 0.19445800781250022 Q 2.419189453125 0.14355468750000022 2.4774169921875 0.10620117187500022 Q 2.53564453125 0.06884765625000022 2.6063232421875 0.04797363281250022 Q 2.677001953125 0.027099609375000222 2.75830078125 0.027099609375000222 Z M 2.800048828125 1.0517578125000002 Q 2.88134765625 1.0517578125000002 2.94873046875 1.0224609375000002 Q 3.01611328125 0.9931640625000002 3.0648193359375 0.9375000000000002 Q 3.113525390625 0.8818359375000002 3.140625 0.8016357421875002 Q 3.167724609375 0.7214355468750002 3.167724609375 0.6196289062500002 Q 3.167724609375 0.5068359375000002 3.1417236328125 0.4105224609375002 Q 3.11572265625 0.3142089843750002 3.064453125 0.24353027343750022 Q 3.01318359375 0.17285156250000022 2.9366455078125 0.13293457031250022 Q 2.860107421875 0.09301757812500022 2.75830078125 0.09301757812500022 Q 2.677001953125 0.09301757812500022 2.609619140625 0.12194824218750022 Q 2.542236328125 0.15087890625000022 2.4935302734375 0.20581054687500022 Q 2.44482421875 0.2607421875000002 2.417724609375 0.3405761718750002 Q 2.390625 0.4204101562500002 2.390625 0.5222167968750002 Q 2.390625 0.6342773437500002 2.416259765625 0.7313232421875002 Q 2.44189453125 0.8283691406250002 2.4931640625 0.8994140625000002 Q 2.54443359375 0.9704589843750002 2.621337890625 1.0111083984375002 Q 2.6982421875 1.0517578125000002 2.800048828125 1.0517578125000002 Z M 3.8349609375 0.4921875000000002 L 3.82470703125 0.4936523437500002 Q 3.819580078125 0.4768066406250002 3.8082275390625 0.4577636718750002 Q 3.796875 0.4387207031250002 3.7789306640625 0.4226074218750002 Q 3.760986328125 0.4064941406250002 3.7357177734375 0.3958740234375002 Q 3.71044921875 0.3852539062500002 3.677490234375 0.3852539062500002 Q 3.65478515625 0.3852539062500002 3.6346435546875 0.3918457031250002 Q 3.614501953125 0.3984375000000002 3.5994873046875 0.4112548828125002 Q 3.58447265625 0.4240722656250002 3.57568359375 0.4431152343750002 Q 3.56689453125 0.4621582031250002 3.56689453125 0.4877929687500002 Q 3.56689453125 0.5236816406250002 3.5892333984375 0.5562744140625002 Q 3.611572265625 0.5888671875000002 3.645263671875 0.6207275390625002 Q 3.678955078125 0.6525878906250002 3.7181396484375 0.6848144531250002 Q 3.75732421875 0.7170410156250002 3.791015625 0.7521972656250002 Q 3.82470703125 0.7873535156250002 3.8470458984375 0.8272705078125002 Q 3.869384765625 0.8671875000000002 3.869384765625 0.9133300781250002 Q 3.869384765625 0.9506835937500002 3.856201171875 0.9862060546875002 Q 3.843017578125 1.0217285156250002 3.8155517578125 1.0495605468750002 Q 3.7880859375 1.0773925781250002 3.7452392578125 1.0946044921875002 Q 3.702392578125 1.1118164062500002 3.64306640625 1.1118164062500002 Q 3.60791015625 1.1118164062500002 3.5775146484375 1.1052246093750002 Q 3.547119140625 1.0986328125000002 3.5218505859375 1.0887451171875002 Q 3.49658203125 1.0788574218750002 3.4764404296875 1.0667724609375002 Q 3.456298828125 1.0546875000000002 3.44091796875 1.0437011718750002 L 3.4482421875 0.9045410156250002 L 3.4599609375 0.9045410156250002 Q 3.46728515625 0.9389648437500002 3.48193359375 0.9675292968750002 Q 3.49658203125 0.9960937500000002 3.5181884765625 1.0162353515625002 Q 3.539794921875 1.0363769531250002 3.567626953125 1.0477294921875002 Q 3.595458984375 1.0590820312500002 3.62841796875 1.0590820312500002 Q 3.6826171875 1.0590820312500002 3.7144775390625 1.0290527343750002 Q 3.746337890625 0.9990234375000002 3.746337890625 0.9506835937500002 Q 3.746337890625 0.9118652343750002 3.7247314453125 0.8792724609375002 Q 3.703125 0.8466796875000002 3.670166015625 0.8166503906250002 Q 3.63720703125 0.7866210937500002 3.5994873046875 0.7565917968750002 Q 3.561767578125 0.7265625000000002 3.52880859375 0.6925048828125002 Q 3.495849609375 0.6584472656250002 3.4742431640625 0.6177978515625002 Q 3.45263671875 0.5771484375000002 3.45263671875 0.5251464843750002 Q 3.45263671875 0.4826660156250002 3.4683837890625 0.4471435546875002 Q 3.484130859375 0.4116210937500002 3.5123291015625 0.3863525390625002 Q 3.54052734375 0.3610839843750002 3.579345703125 0.3471679687500002 Q 3.6181640625 0.3332519531250002 3.664306640625 0.3332519531250002 Q 3.72509765625 0.3332519531250002 3.7657470703125 0.3460693359375002 Q 3.806396484375 0.3588867187500002 3.82763671875 0.3706054687500002 L 3.8349609375 0.4921875000000002 Z M 4.046630859375 0.6313476562500002 Q 4.046630859375 0.5690917968750002 4.0447998046875 0.5225830078125002 Q 4.04296875 0.4760742187500002 4.0404052734375 0.4423828125000002 Q 4.037841796875 0.4086914062500002 4.0338134765625 0.3859863281250002 Q 4.02978515625 0.3632812500000002 4.025390625 0.3479003906250002 L 4.025390625 0.3449707031250002 L 4.194580078125 0.3449707031250002 L 4.194580078125 0.3479003906250002 Q 4.190185546875 0.3632812500000002 4.1865234375 0.3859863281250002 Q 4.182861328125 0.4086914062500002 4.179931640625 0.4423828125000002 Q 4.177001953125 0.4760742187500002 4.175537109375 0.5225830078125002 Q 4.174072265625 0.5690917968750002 4.174072265625 0.6313476562500002 L 4.174072265625 0.8085937500000002 Q 4.174072265625 0.8708496093750002 4.175537109375 0.9173583984375002 Q 4.177001953125 0.9638671875000002 4.179931640625 0.9975585937500002 Q 4.182861328125 1.0312500000000002 4.1865234375 1.0539550781250002 Q 4.190185546875 1.0766601562500002 4.194580078125 1.0920410156250002 L 4.194580078125 1.0949707031250002 L 4.025390625 1.0949707031250002 L 4.025390625 1.0920410156250002 Q 4.02978515625 1.0766601562500002 4.0338134765625 1.0539550781250002 Q 4.037841796875 1.0312500000000002 4.0404052734375 0.9975585937500002 Q 4.04296875 0.9638671875000002 4.0447998046875 0.9173583984375002 Q 4.046630859375 0.8708496093750002 4.046630859375 0.8085937500000002 L 4.046630859375 0.6313476562500002 Z M 4.03125 0.12304687500000022 Q 4.03125 0.10693359375000022 4.0374755859375 0.09265136718750022 Q 4.043701171875 0.07836914062500022 4.053955078125 0.06774902343750022 Q 4.064208984375 0.05712890625000022 4.0784912109375 0.05090332031250022 Q 4.0927734375 0.04467773437500022 4.109619140625 0.04467773437500022 Q 4.12646484375 0.04467773437500022 4.1407470703125 0.05090332031250022 Q 4.155029296875 0.05712890625000022 4.1656494140625 0.06774902343750022 Q 4.17626953125 0.07836914062500022 4.1824951171875 0.09265136718750022 Q 4.188720703125 0.10693359375000022 4.188720703125 0.12304687500000022 Q 4.188720703125 0.15673828125000022 4.166015625 0.17944335937500022 Q 4.143310546875 0.20214843750000022 4.109619140625 0.20214843750000022 Q 4.0927734375 0.20214843750000022 4.0784912109375 0.19592285156250022 Q 4.064208984375 0.18969726562500022 4.053955078125 0.17907714843750022 Q 4.043701171875 0.16845703125000022 4.0374755859375 0.15417480468750022 Q 4.03125 0.13989257812500022 4.03125 0.12304687500000022 Z" fill="#404040" fill-rule="nonzero"></path></g><g></g><g clip-path="url(&quot;#SvgjsClipPath1010&quot;)"><g clip-path="url(&quot;#SvgjsClipPath1008&quot;)"><path d=" M 2.416192880057447 -1.3144126704801218 C 2.281030381269649 -1.6662330175219386 2.2850088832050583 -1.7218823133434802 2.197552885303466 -1.7516997644558265 C 2.1100968874018733 -1.7815172155681729 1.786104740504698 -1.8987622467111445 1.786104740504698 -1.8987622467111445 C 1.786104740504698 -1.8987622467111445 1.6728026889584269 -1.9385117437265311 1.9232209679214924 -2.0537959417727656 C 2.1736392468845582 -2.169080139818999 3.2175839458005457 -2.717225348437795 3.260928303493284 -2.7415084191792767 C 3.3042726611860234 -2.7657914899207587 3.4398188012318793 -2.823003768645497 3.4398188012318793 -2.823003768645497 C 3.4398188012318793 -2.823003768645497 3.209250405139411 -2.0080573784510385 3.1337157041085635 -1.7715425428586817 C 3.058181003077716 -1.5350277072663243 3.0462597062069707 -1.298477349335258 2.8832690072745306 -1.4296613461876473 C 2.720278308342091 -1.5608453430400362 2.7083570114713456 -1.6105410948939465 2.567226759780433 -1.4038223970107102 C 2.4260965080895205 -1.197103699127474 2.416192880057447 -1.3144126704801218 2.416192880057447 -1.3144126704801218 Z" fill="#4e888f" transform="matrix(1,0,0,1,0,0)" fill-rule="nonzero"></path></g><g clip-path="url(&quot;#SvgjsClipPath1008&quot;)"><path d=" M 3.940619836819301 -0.285827830821912 C 3.8974530908201066 -0.30738989041828324 3.831843331224558 -0.3380882955306128 3.7424620225649368 -0.374633677594447 C 3.356852826943106 -0.5314648029947437 2.948509334547506 -0.631325201573524 2.53470250645846 -0.6806373121693774 C 2.363058565816504 -0.7010271345883514 2.190656815282089 -0.7129910582655477 2.0174972548552157 -0.7165290832009648 L 2.0595059726124956 -0.7416504811359799 L 2.0881227686764774 -0.7588788154098518 C 2.0977777403375875 -0.7651094336194131 2.107255100305152 -0.7715247679902606 2.1166258932565896 -0.7780608783127194 C 2.1353035389497896 -0.7911686212963454 2.153384409352677 -0.8048589306347993 2.171031907223316 -0.8189399856990529 C 2.2402936515667995 -0.8754157947068304 2.3054211812536427 -0.9367801683091836 2.365914561848709 -1.0025620589536879 C 2.4264872538153193 -1.0673548047589296 2.4836213833948975 -1.1347904125641222 2.538681008393869 -1.2036611228531584 C 2.59289756988748 -1.2716366702067274 2.6452053977144603 -1.3409194396247883 2.6956044918748097 -1.4115094311073415 C 2.717680441304505 -1.39953603480649 2.7396853460567816 -1.3873684497206955 2.761619206131641 -1.3750066758499584 L 2.866765328710323 -1.3154641317059093 C 2.8848888259196617 -1.3056102349480287 2.902998114193517 -1.2956923979804718 2.9232742651286223 -1.2866128882064476 C 2.945992486588013 -1.2753171065164488 2.970647617874083 -1.2684343061036467 2.9959316567240397 -1.266329632803601 C 3.0041235133494926 -1.2659724408740214 3.0123291989845433 -1.266563669821579 3.0203852346913247 -1.2680915408035682 C 3.0246812204498474 -1.2690639042061287 3.0289119558394604 -1.2703048882828352 3.0330525006749594 -1.2718071774325308 C 3.0372499471518615 -1.273065332412257 3.041281020169866 -1.2748232618881559 3.045059051158606 -1.2770431701582399 C 3.0488315235295036 -1.2791745104807801 3.0525613690939495 -1.2813555820775138 3.0561988565777525 -1.283657429625858 C 3.059388762593822 -1.286094262061296 3.06233711670667 -1.288666079383829 3.0653494110291946 -1.291259210109587 C 3.0708637270516888 -1.296100420777841 3.0759024185113724 -1.3014578963053238 3.0803966737063324 -1.307258471464127 C 3.0945011439620984 -1.3263617705058877 3.1060244907825028 -1.347241864734154 3.1146686260927896 -1.3693586239952253 C 3.131065737640871 -1.4096409560912473 3.143015452382583 -1.4467973223808757 3.1564428964145903 -1.485083299041451 C 3.1825873377044247 -1.56121477536261 3.2082131528491074 -1.6374409779203263 3.2333203418486387 -1.7137619067145997 C 3.2881478875680448 -1.8797980541523591 3.341175634792861 -2.0464499221277412 3.392403583523087 -2.2137175106407465 C 3.442916349167305 -2.3813403225408423 3.4927115635696007 -2.548941821037712 3.5323615980366028 -2.721083074421594 C 3.53719974056877 -2.7426735518889327 3.541803435665458 -2.7643705963723986 3.545959549294413 -2.7863447150977945 L 3.549177873181449 -2.8041058844523015 L 3.5533197778749206 -2.829738804064726 C 3.5561258704447374 -2.8473701376283036 3.557721004342351 -2.865172971307027 3.558093980197412 -2.883022312128247 C 3.5585385939768424 -2.8971521333042065 3.556408065688614 -2.911244915902275 3.5518065262459166 -2.9246118662887604 C 3.549902652700255 -2.9298464720584305 3.547356362363431 -2.9348245054629434 3.544226059165413 -2.9394317859981616 C 3.5409836894780944 -2.9444671488737226 3.536603228068993 -2.9486699582367883 3.531438017230168 -2.951701201788255 C 3.5260099997861314 -2.9544082065465753 3.5199229368796914 -2.9555122568227232 3.5138899819079152 -2.9548840033365824 C 3.4959654097953465 -2.9541167208204677 3.4450121671511362 -2.909685379563233 3.4450121671511362 -2.909685379563233 L 3.4404795167318665 -2.906232608240717 L 3.4368491337158056 -2.9026803743698157 L 3.4296523078933596 -2.8955759066280127 L 3.4008863180068003 -2.8671580356608017 L 3.3832104022651945 -2.8497591941611264 C 3.368790205729642 -2.8644760181708215 3.3487490712550345 -2.872298967783731 3.3281720906694483 -2.8712431046123377 C 3.316908209961869 -2.8706805796868022 3.305804142655814 -2.8683403573394237 3.29527130055716 -2.864309144096338 C 3.2898754859773476 -2.862471374066034 3.2846128045913603 -2.8602637539988405 3.2795206955735825 -2.8577019890964612 C 3.277176221218788 -2.8565865876609986 3.27399341967046 -2.8551799030481217 3.2723451831543615 -2.854291844580396 L 3.2676065031705797 -2.8516845049191546 C 3.255344191848228 -2.844977887370893 3.243216865412971 -2.8364596305484713 3.2342155047841064 -2.8306481759356763 L 3.176235943543254 -2.792539810968646 C 3.1365574912052847 -2.768128859807812 3.097276889060857 -2.743192178034084 3.0566464380454863 -2.719726121082909 C 2.8952826622259193 -2.6246186114233954 2.729755668309656 -2.534846557037975 2.5634329740063104 -2.4466943212976857 C 2.397110279702965 -2.3585420855573966 2.2294590499319025 -2.2724430409944882 2.0613460297576225 -2.1872746817057562 L 1.8087324702623402 -2.0603462610307073 L 1.7454529760861024 -2.0288379465958117 L 1.7137954678286291 -2.013129968418686 L 1.6979596092321505 -2.0052724270962523 C 1.6926667807645075 -2.0026153561608178 1.6880133543936267 -2.0004982247737604 1.6798503209582951 -1.9959016341448144 C 1.6669326688832198 -1.9883059159255505 1.6548625094330356 -1.9793533252836322 1.6438448784428388 -1.9691959399033774 C 1.6411522851686955 -1.9667804208711646 1.6384952142332612 -1.9643080660970171 1.6359518147816956 -1.9616580996293247 C 1.6318127544838879 -1.9576608624196208 1.6279485907934355 -1.9533884455628552 1.624385741298041 -1.9488700576940798 C 1.6171668032010058 -1.940511589804111 1.6108712944538253 -1.9313982275389907 1.605608633056456 -1.921688364113942 C 1.595529297972054 -1.9042873457588265 1.5926532659230694 -1.8836349879602674 1.5975947934437025 -1.8641421754053393 C 1.6005791782410201 -1.8550953731431488 1.6056203467763066 -1.8468636531759777 1.61232235507246 -1.8400935520993371 C 1.6199809712981232 -1.834253679615575 1.6290817944753728 -1.8292450298576042 1.6373869172655402 -1.8237532762931905 C 1.6465232627814985 -1.820492325599703 1.6553967429910101 -1.8170892855513796 1.6647249091359972 -1.8140343644224044 L 1.6824008248776026 -1.8081163427934825 L 1.7114936202802853 -1.7987881766484954 L 1.769217420682433 -1.7808138732617345 L 1.8837911719544869 -1.7450073558430483 C 1.9598729170014533 -1.7207811208435009 2.0354857671774607 -1.6955389469568753 2.110480528659931 -1.6685845963444754 C 2.1198726350145938 -1.6652099741671191 2.1292292190305484 -1.6617572028446028 2.1386000119819863 -1.658339953860796 C 2.143673863983067 -1.6393128604883358 2.1504136246784498 -1.6207696035486583 2.158741178029998 -1.6029251054747338 C 2.1805589984650737 -1.5550267839594996 2.2047070843194616 -1.5097286976377648 2.227725559802902 -1.4635709707192717 C 2.271048604092416 -1.3768585737746548 2.3035562803229914 -1.3118029626629664 2.3252485884946292 -1.2684041373842068 C 2.346888797236161 -1.2249318992721159 2.358007289252082 -1.2032419592563914 2.359897077671402 -1.2040234507079897 C 2.3616021499294346 -1.20473389748217 2.354518995590857 -1.2280720740139923 2.3377595561879443 -1.2738035328679769 C 2.3210001167850316 -1.319534991721962 2.2941594376565004 -1.387581583752949 2.253088509641138 -1.4758616999125906 C 2.231512241109283 -1.522751187008489 2.2082380047871375 -1.5691859881689123 2.1885231068036344 -1.6157770876196549 C 2.1846369629488676 -1.625105253764642 2.1810634156747417 -1.6345257779902727 2.1778664051909304 -1.6438823620062266 C 2.3047877213982373 -1.596680278329689 2.4297197866378397 -1.5453078720887128 2.5508509616355775 -1.4860352977188522 C 2.573308184167416 -1.4751157307997012 2.595609108408935 -1.4638693583644273 2.6177963611665853 -1.4524808965743172 C 2.5704332428879 -1.3861725309841577 2.5216279176576286 -1.3210482433509654 2.4713803854757717 -1.2571080336747402 C 2.4177203406219347 -1.1893811426921344 2.3621776118165205 -1.123266965886917 2.303871245059545 -1.0601792923397082 C 2.2465125024782995 -0.9970815489513947 2.184729448286668 -0.9381522484060896 2.1189916810146077 -0.8838392985204186 C 2.102601673934271 -0.870603675117442 2.085934592612002 -0.8578440510531644 2.068954914709093 -0.8457735603598411 C 2.06042955341893 -0.8397844940535015 2.0519041921287666 -0.8339162036987724 2.043229637016025 -0.8282539429085558 L 2.015834809403634 -0.8115797571185448 L 1.9608604380175636 -0.7782669078772311 C 1.9425451201791957 -0.7671484158613096 1.9244003095666313 -0.7557386406679747 1.9051614109218296 -0.7461689226197659 L 1.8508974863099397 -0.7174810818783666 C 1.7285253976133004 -0.7163206854805386 1.60625513962096 -0.7111320558731085 1.484086712332919 -0.7019151930560765 C 1.3088993637154278 -0.688784395861656 1.1344983626819138 -0.6667009058602273 0.9615673188588011 -0.6357512849766676 C 0.875063319634615 -0.6201214559447012 0.7889287527329979 -0.6020050632031038 0.7033838566539502 -0.5806845555099538 C 0.617237853635959 -0.5597913859062267 0.5323375215696478 -0.534060849999221 0.4490865383038657 -0.503615289446878 C 0.4280999405945751 -0.4956298677050901 0.4073477903207691 -0.4872750136407302 0.3863398792082582 -0.477641355382846 L 0.37832603959550465 -0.47393282322162467 L 0.36488438662801376 -0.46721910120562127 C 0.3559469662088258 -0.462658032915384 0.3470450681283469 -0.4578198903832167 0.3388678257575319 -0.4527401959478272 C 0.32385921747276813 -0.44439406853870267 0.3105669988610258 -0.43328106023254875 0.2996937906292311 -0.4199885996581161 C 0.29149078173489973 -0.40989797773142644 0.2871733978568085 -0.39720290324576046 0.28752383738752296 -0.3842033956426558 C 0.288061818775463 -0.37721352302299893 0.2904178862092595 -0.37048575042358234 0.29435833535513733 -0.36468742275592225 C 0.32481518856424596 -0.3341382114661702 0.41218593285293686 -0.3291082483049741 0.41218593285293686 -0.3291082483049741 L 0.4164130911593096 -0.3288453829985274 L 0.42478215415915327 -0.3283693836598265 L 0.4415131756910989 -0.3274102805146839 L 0.4749894276904737 -0.32552049209536404 C 0.49731166533521814 -0.32417064322442135 0.5194562912864175 -0.32470347830505686 0.5417074842537438 -0.3242132700308722 C 0.5528117673341817 -0.32415643428893803 0.5639444682855866 -0.32382962877281507 0.5750345424305408 -0.32399303153087633 L 0.6082479291234689 -0.3249379257405356 C 0.6303783461391848 -0.3257478350631011 0.6525869123000603 -0.32582598420826114 0.6746533891060997 -0.32724687775662176 C 0.8511573065561416 -0.3373519747682483 1.0265384326531035 -0.361882664581759 1.1990412575963094 -0.40059340272299426 C 1.3718465164806857 -0.43882563759996485 1.5409760161181656 -0.49210145375794356 1.7044957195546107 -0.5598116292845368 C 1.7454387671506189 -0.5766634267680923 1.7853729803272922 -0.5960444147677308 1.8258613419878265 -0.6140613449609429 C 1.8462653733422838 -0.6227359000736845 1.8655753166645042 -0.6337904518799289 1.8853541548576833 -0.6438290647990965 L 1.926460605211754 -0.6652064082341811 C 2.127985778556041 -0.6672749150923609 2.329468736724552 -0.6580602130724595 2.52996382647468 -0.6376055510572782 C 2.941056747886355 -0.5955257886225791 3.3480646003464956 -0.5039349904952579 3.735116002919913 -0.35605549444963236 C 3.8248241170956563 -0.3215846169664056 3.891414293239574 -0.2938061480959564 3.9358882613032597 -0.27547662132210515 C 3.980362229366945 -0.25714709454825435 4.002876287640718 -0.24835886795164397 4.003778555043928 -0.25025576083870504 C 4.004581359898751 -0.25193241522577026 3.9837936872862367 -0.26430129356424903 3.940619836819301 -0.285827830821912 Z M 3.467270464586205 -2.8388254183064916 L 3.474232842973172 -2.8455249313870117 C 3.476421019037647 -2.8473649885321386 3.4791278212472743 -2.8507040883707857 3.482296413860118 -2.849077165257913 C 3.4841138296089835 -2.846289742685645 3.4848538160117064 -2.8429358111402014 3.484378022908466 -2.839642432096799 C 3.4842702551277416 -2.8363947224644477 3.4839880376612435 -2.8331551505380896 3.483532591247192 -2.8299377291614967 C 3.4831063231826835 -2.8267549276131687 3.48258059256979 -2.8236289618067754 3.482012235150446 -2.8205527272745745 L 3.477976897473102 -2.799566129565289 C 3.47379236597318 -2.7786932033398726 3.469124730666816 -2.7577350235015543 3.464201334521746 -2.736776843663236 C 3.423776913070888 -2.568962211134112 3.372653163200875 -2.4019859057985204 3.321131563137322 -2.235727151704851 C 3.269126859267325 -2.069444716052043 3.215177899391988 -1.903702219947611 3.1592846835113115 -1.7384996633915566 C 3.1336801817698543 -1.6625671121671681 3.107701511393995 -1.5867861229212716 3.0813486723837347 -1.511156695653867 C 3.0680420043033383 -1.4737658819287587 3.054969783658421 -1.4345918468004581 3.0408532062554587 -1.4006253865268987 C 3.0348718368830077 -1.3853335038719652 3.027023485842836 -1.3708394679285156 3.0174866118526693 -1.3574728494631882 C 3.0155257787559315 -1.3554693895600003 3.0135933635301617 -1.3524144684310249 3.011959335949547 -1.3516045591084593 C 3.0111423221592393 -1.350965157011697 3.010367935175383 -1.3501836655600992 3.0096432794657186 -1.3494732187859189 C 3.0089631952535205 -1.3492785273676446 3.008321579971895 -1.3489685334675334 3.0077463865786576 -1.3485567424472256 C 3.0072980590795977 -1.348081005224321 3.0066661455216663 -1.3478220242579557 3.0060128964496577 -1.347846295673046 C 3.0054019122238627 -1.3477894599311115 3.0050537933045143 -1.3472850427214433 3.004307824191625 -1.3472139980440254 C 3.0025743340626248 -1.3474697588827302 3.001572604111031 -1.3465035512698451 2.998823175094953 -1.3471003265601564 C 2.984139848093937 -1.349181476590986 2.96991189708248 -1.353720778989982 2.9567363081925135 -1.3605277705921637 C 2.9403960323863667 -1.3679022081081549 2.9232742651286223 -1.377308523398302 2.9062093336128116 -1.3867290476239327 L 2.802135985663142 -1.446406576655076 C 2.782717107168881 -1.457546382074223 2.763158507475698 -1.468532257358964 2.743460186583593 -1.4793642025092995 C 2.778584675099066 -1.5298343413470665 2.8129987168403585 -1.5807496934966534 2.846702311807471 -1.6321102589580596 C 2.942967849708899 -1.7791016965359596 3.033720320642688 -1.9295056467858391 3.118959724608838 -2.0833221097076975 C 3.161482332199442 -2.160263495351422 3.202299867532013 -2.238227924349966 3.2414123306065514 -2.3172153967033298 C 3.280231142347762 -2.3964088986212055 3.317259628218038 -2.476618339426159 3.34969862792711 -2.5598827013600878 C 3.367943913974636 -2.6055417053198147 3.3832590672071747 -2.6523177047805846 3.395550862732705 -2.6999259694865048 C 3.398584470458456 -2.712245116550791 3.401234436926148 -2.724955009340876 3.403323150442238 -2.7381977372115966 C 3.4043959250712503 -2.7447906832759896 3.4052768790712333 -2.751596763372637 3.405909176700254 -2.758679917711214 L 3.406370967103471 -2.7639940595820827 L 3.4067190860228194 -2.7707006771303444 L 3.406903802184106 -2.777677264452795 L 3.4067830262324956 -2.7812294983236963 Z M 1.9101842696152842 -1.827404972712477 L 1.7950918921980785 -1.8638793100988924 L 1.7379435536830168 -1.8819175536953296 L 1.7097388167480596 -1.8910681081467717 L 1.698890294506327 -1.894734013501542 L 1.6979951315708597 -1.8950821324208904 C 1.6972846847966794 -1.8953947290015298 1.696396626328954 -1.8955368183563657 1.6961834922966998 -1.896353832146673 C 1.6961617565729288 -1.8971393767284233 1.6964442818182197 -1.8979029584724527 1.69697208821604 -1.898485172469214 L 1.6976825349902203 -1.8993448130659722 C 1.6977614874590945 -1.899434832504112 1.6978523086028199 -1.899513703497347 1.6979525047644088 -1.8995792605014519 C 1.6994728608611547 -1.9011990791465827 1.7011566197159618 -1.9027265397110704 1.7028616919739947 -1.9042326868723325 C 1.7092028917800808 -1.9100615437969584 1.7161285188868944 -1.9152206479359979 1.723528588634899 -1.9196280684688192 L 1.848034385809993 -1.9811953859192823 L 2.101550212708484 -2.107654911723372 C 2.2702765852644733 -2.1925485649260876 2.4383351378527323 -2.278898634015873 2.6057258704732624 -2.366705118992728 C 2.7729650411153006 -2.454921294942693 2.939280630950904 -2.5449917369732695 3.1029959855930076 -2.6415059312456606 C 3.14406691360837 -2.6652490624387655 3.1844700216560025 -2.690839355244739 3.225072054800405 -2.7158754995668524 L 3.2852895233799257 -2.7554971161628865 L 3.2553228784450012 -2.7267453352118105 C 3.1290764866731653 -2.606537741020507 3.0016460169443624 -2.487466861667892 2.8730314692585925 -2.369532697153965 C 2.7209958595840127 -2.230405905366241 2.5685055639739574 -2.0912933225140002 2.411496826880115 -1.958468193613255 C 2.3919666450578987 -1.9417016497426005 2.3721664934614948 -1.9254111052106468 2.352224252510254 -1.9093479036464307 L 2.322385487994682 -1.8851500865178503 L 2.2920423062694426 -1.8620889842279584 C 2.2721497965923945 -1.8465230954056684 2.2504598565766702 -1.8318878918575545 2.229686392899639 -1.816272271761072 C 2.207808441406736 -1.8007144055416653 2.1871458561503543 -1.7835145845730769 2.1678775235459558 -1.7648217163749362 C 2.1619282820442747 -1.758514080144588 2.156465866390543 -1.7517644343672385 2.1515372477398085 -1.7446308190527324 C 2.14752322346569 -1.7461014438752855 2.143516303659313 -1.7476146955042895 2.1394951749174527 -1.749071111391359 C 2.0635271013543557 -1.7767003864392303 1.986955148033205 -1.8026316936968108 1.9101842696152842 -1.827404972712477 Z M 2.5875029107155383 -1.5608879698464866 C 2.456925210978673 -1.624636644270521 2.323148194876064 -1.681611923290238 2.186704363061729 -1.7315870162787845 C 2.188949374868143 -1.7341872514722825 2.1912938492229377 -1.736766173262557 2.193808830803536 -1.7393095727141223 C 2.2120659834273733 -1.7560534265932906 2.2315381172916373 -1.771422164443232 2.252065466286319 -1.7852896879390698 C 2.2728957657052846 -1.8002090701968558 2.2943370493500455 -1.8139064840030517 2.315494154285134 -1.8296641934543703 L 2.3473079608329273 -1.8527181912765205 L 2.378120037429126 -1.8765749939534944 C 2.398722993880354 -1.8924321659531982 2.4191270252348116 -1.908474054114189 2.4391118929925026 -1.9248853745977534 C 2.600113340957238 -2.0552452531920933 2.755303334309179 -2.1915302578830964 2.9101949400159635 -2.3283054708482838 C 3.0394962529167744 -2.4430710427493665 3.1676726917584666 -2.559110682532146 3.2947242565410404 -2.6764243901966216 C 3.286049701428299 -2.648510936439078 3.2760181929768732 -2.6204056620525065 3.2652904466867514 -2.5925419395691556 C 3.2344428477518434 -2.513078467877091 3.1984018828976777 -2.4345172635882357 3.1605066519629017 -2.356893849041298 C 3.122483540608773 -2.279270434494361 3.082279357657911 -2.2025066605441816 3.0405264007393358 -2.1265385869810842 C 2.9569589148484234 -1.974616648790373 2.8677907402210563 -1.8258396216533663 2.773021876857235 -1.6802075055700645 C 2.7380892089707904 -1.626582983054937 2.702183229003719 -1.5735978626365716 2.6657444139560122 -1.5210105924117472 C 2.639813106698432 -1.5345801257985907 2.6137610234892414 -1.5479578385564055 2.5875029107155383 -1.5608879698464866 Z M 1.6734634044584145 -0.6335488999767085 C 1.514568812865535 -0.5665883948889312 1.3501353233868991 -0.5136179524259052 1.1820331618224271 -0.4752400452861143 C 1.0139090485839306 -0.4363128803325398 0.8428887964112315 -0.41116962195150863 0.6706748871706848 -0.4000605676423583 C 0.6491980811872202 -0.3985117936746456 0.6277212752037504 -0.3983128685778756 0.6062373647525388 -0.3973679743682159 L 0.5740186035434629 -0.396209946126302 C 0.563283752785599 -0.39597549869082194 0.5525915288341857 -0.396209946126302 0.5418708870118052 -0.396209946126302 C 0.5204864391089788 -0.3965438561101666 0.4989385884480909 -0.39584051380372776 0.47768202096461687 -0.39699854204564167 L 0.4169814485786537 -0.4000250453036496 L 0.4024030807724744 -0.40144593885201063 C 0.4010745453047573 -0.4017230130939402 0.39891478711124917 -0.4021563856261907 0.39902845859511804 -0.40387566681970677 C 0.39957550630523575 -0.40526816842004143 0.40056042512195517 -0.4064450840693876 0.4018347233531302 -0.4072289755938372 C 0.4030616870638572 -0.408130178856561 0.4043455269091115 -0.40895126681674165 0.4056782404014455 -0.4096871214325013 L 0.4077243271110847 -0.41079541840022227 L 0.41570974885287104 -0.41460341310982907 C 0.4342950364654272 -0.4233419084322465 0.4540028299811882 -0.43145521059338554 0.4737532503034 -0.4391351402222736 C 0.5542798682011421 -0.4693187315854841 0.6364259298821942 -0.4949914512146263 0.7198093860729995 -0.5160338990595483 C 0.8034929116036936 -0.5377238390752712 0.8881355402795322 -0.5563872758329875 0.9732683772295553 -0.5726920293004252 C 1.1438199779145917 -0.6050440685927683 1.3158891734449687 -0.6288076762105259 1.4888253923166967 -0.6438930050087714 C 1.5699442049926042 -0.6509974727505754 1.651212211491088 -0.6563542414278953 1.7326294118121481 -0.6599633110407308 C 1.7130494987157396 -0.6508624878634812 1.6934340632806222 -0.6418966495733263 1.6734634044584145 -0.6335488999767085 Z" fill="#404040" transform="matrix(1,0,0,1,0,0)" fill-rule="nonzero"></path></g></g></g><defs><clipPath id="SvgjsClipPath1010"><path d=" M 0.2874598971778468 -2.9549763614172257 h 3.7163399712693064 v 2.7049763614172257 h -3.7163399712693064 Z"></path></clipPath><clipPath id="SvgjsClipPath1008"><path d=" M 0.2874598971778468 -2.9549763614172257 L 4.003799868447153 -2.9549763614172257 L 4.003799868447153 -0.25 L 0.2874598971778468 -0.25 Z"></path></clipPath></defs></svg>